PathFileType	4	(X/Y/Z)	c:\Git\powerlifing_model_clean\simulations\HC835B\Session1\HC835B_OGR_0004\marker_experimental.trc
DataRate	CameraRate	NumFrames	NumMarkers	Units	OrigDataRate	OrigDataStartFrame	OrigNumFrames
240.000000	240.000000	4	38	mm	240.000000	27	217
Frame#	Time	RPSI			LPSI			RASI			LASI			RTH1			RTH2			RTH3			RTH4			RSK1			RSK2			RSK3			RSK4			RCAL1			RCAL2			RCAL3			RST			RPT			RTN			RFMB			RSMB			RVMB			RFMH			RSMH			RVMH			RPM			LTH1			LTH2			LTH3			LTH4			LSK1			LSK2			LSK3			LSK4			LCAL1			LCAL2			LCAL3			LFMH			LVMH			
		X1	Y1	Z1	X2	Y2	Z2	X3	Y3	Z3	X4	Y4	Z4	X5	Y5	Z5	X6	Y6	Z6	X7	Y7	Z7	X8	Y8	Z8	X9	Y9	Z9	X10	Y10	Z10	X11	Y11	Z11	X12	Y12	Z12	X13	Y13	Z13	X14	Y14	Z14	X15	Y15	Z15	X16	Y16	Z16	X17	Y17	Z17	X18	Y18	Z18	X19	Y19	Z19	X20	Y20	Z20	X21	Y21	Z21	X22	Y22	Z22	X23	Y23	Z23	X24	Y24	Z24	X25	Y25	Z25	X26	Y26	Z26	X27	Y27	Z27	X28	Y28	Z28	X29	Y29	Z29	X30	Y30	Z30	X31	Y31	Z31	X32	Y32	Z32	X33	Y33	Z33	X34	Y34	Z34	X35	Y35	Z35	X36	Y36	Z36	X37	Y37	Z37	X38	Y38	Z38	

28	0.1125	477.9597473144532	1114.949462890625	49.81761550903322	368.2513122558594	1113.65087890625	37.25946044921876	549.7122192382814	1062.85205078125	-154.1857452392578	314.7168579101563	1050.083984375	-163.1886596679688	614.8362426757814	793.946716308594	-130.5741119384766	611.0618286132814	797.789245605469	-191.2910919189453	598.9876098632814	722.6314697265626	-172.7469940185547	585.1480712890626	726.2539672851564	-229.5625610351563	515.7932128906251	293.7151489257813	-136.117431640625	515.3535766601564	273.9410400390626	-194.5895080566407	505.740692138672	236.7651977539063	-147.0804443359375	492.7581481933595	220.3971099853516	-203.4268951416016	426.5282287597657	95.94864654541017	-76.70278167724611	395.6355285644532	59.13129043579103	-85.89086914062501	459.3067016601564	60.00364303588869	-75.6105422973633	388.8839416503907	72.64487457275392	-155.1781463623047	488.3198547363282	70.2754364013672	-133.1439208984375	408.3835754394532	91.47090911865236	-210.4858856201172	415.0778198242189	75.91271209716798	-241.6503906250001	464.263885498047	97.59329986572268	-246.7279663085938	503.4621887207032	44.97428512573243	-174.1482086181641	418.7727355957032	48.81819152832033	-296.6291809082032	474.393768310547	61.77818679809572	-304.9801940917969	528.3913574218751	40.4355583190918	-250.5331726074219	469.9160156250001	47.63163757324219	-364.1497497558594	231.4536743164063	769.9133300781252	-27.2190113067627	233.6098937988282	751.3908081054689	-85.17810821533205	231.8294067382813	684.8676147460939	-38.47128295898438	246.6722259521485	666.9938964843751	-94.52362060546876	283.6265563964844	587.6775512695314	276.0896911621094	271.1625061035157	538.8280029296876	293.9165039062501	285.5055236816407	570.2413330078126	329.5458679199219	288.1081237792969	517.1228027343751	344.7006835937501	361.9960327148438	620.1257324218751	450.7048950195314	341.1103210449219	632.8478393554689	491.7088928222657	397.6195068359376	618.0136108398439	482.6984863281251	369.3374328613282	405.2233886718751	528.3267211914064	279.5403747558594	463.862518310547	563.7473144531251	
29	0.1166666666666667	476.3450927734376	1112.755859375	39.39547348022462	368.0100708007813	1108.180297851563	26.22162055969239	550.3229370117189	1059.249145507813	-166.3453979492188	316.1596984863282	1044.848388671875	-174.4096832275391	614.5207519531251	792.1439208984377	-143.1089630126953	611.1503295898439	796.1472778320315	-203.8706054687501	598.0991821289064	721.1381225585939	-185.6161499023438	583.9713745117189	725.2225952148439	-242.3213195800782	515.0132446289064	294.6743164062501	-141.317123413086	515.1584472656251	273.1913452148438	-199.2576904296876	505.0368957519532	237.3468780517579	-150.9151763916016	492.7599487304689	219.4247741699219	-206.8714294433594	426.3930969238282	96.47544097900393	-77.05422210693361	395.5561523437501	59.51883697509767	-86.06815338134767	459.2244567871095	60.52782058715822	-75.83750915527345	388.8345336914064	72.72914886474611	-155.5029296875	488.2762756347657	70.71163177490236	-133.4840087890625	407.8196105957032	90.99865722656251	-210.9984436035157	414.6633300781251	75.37633514404298	-242.0755004882813	463.8155212402345	97.26750183105472	-247.2341003417969	503.3212280273439	45.27289199829102	-174.3509521484375	418.543182373047	48.23754501342775	-297.0642395019532	474.0763244628907	61.25241470336915	-305.4354858398438	528.1600341796876	40.49273681640626	-250.7144012451172	469.7884521484376	46.2999496459961	-364.6206665039063	230.8797302246094	766.7492065429689	-44.2085304260254	233.2694244384766	749.1569824218751	-102.4397659301758	231.0263671875001	681.9818725585939	-56.83705902099611	245.640853881836	664.9270629882814	-112.8366622924805	283.1160278320313	586.8047485351564	253.1796417236329	270.6779479980469	538.1697998046876	271.7138671875001	285.2527160644532	570.3448486328126	306.8404235839844	287.6637573242188	517.0073242187501	322.6766967773438	361.5948181152344	621.5906982421876	428.0708007812501	340.5373229980469	634.5369873046876	468.8811645507814	396.8543395996095	619.6400146484376	460.2519531250001	369.1315917968751	407.2076721191407	507.0444946289064	279.0614318847657	465.835174560547	541.7664794921876	
30	0.1208333333333333	475.6835021972657	1111.269653320313	29.14862823486329	368.3568420410157	1105.807861328125	14.15768814086914	551.6454467773439	1056.263793945313	-178.4714660644532	317.7585754394532	1039.626220703125	-185.7765655517578	614.4359741210939	790.423034667969	-155.4513702392578	611.0554809570314	794.7653808593752	-216.150619506836	597.5247192382814	719.7883300781251	-198.3576812744141	583.3803100585939	724.3635864257814	-255.0000457763672	514.4829101562501	295.7110595703126	-146.3516082763672	514.6948242187501	272.5207214355469	-203.7228546142579	504.6996154785157	238.1357421875001	-154.4350280761719	492.7502746582032	218.5088958740235	-209.9339599609376	426.773895263672	96.79900360107425	-77.19409942626955	395.8084716796876	59.91502761840822	-86.18409729003908	459.4742431640626	60.78248977661134	-75.83813476562501	389.1089477539064	72.91554260253908	-155.5689086914063	488.5704956054689	70.71028900146486	-133.551986694336	407.9632568359376	90.84923553466798	-211.3511047363282	414.994598388672	75.18935394287111	-242.2732696533204	464.1829833984376	96.91779327392581	-247.3260345458985	503.8079833984376	45.08930587768555	-174.2947540283203	419.021942138672	48.1285743713379	-297.2291259765626	474.5656127929689	60.94932937622072	-305.5462341308594	528.6900024414064	40.19049072265626	-250.7260284423829	470.1197509765626	45.32585906982423	-364.8910217285157	231.4533233642579	763.7528076171876	-61.18173599243165	233.3264617919922	747.3354492187501	-119.8412628173828	230.3805694580079	679.4094848632814	-75.35841369628908	245.2790527343751	663.3054199218751	-131.5195007324219	282.7454528808594	585.9500122070314	230.1566162109376	270.2379760742188	537.7379150390626	249.3621978759766	284.8979187011719	569.9873657226564	284.0490112304688	287.3469543457032	517.1308593750001	300.4991455078126	361.1364135742188	622.5889282226564	405.338348388672	339.8555603027344	635.7590942382814	445.9233398437501	396.2799682617189	620.9412841796876	437.636199951172	369.0213928222657	408.574920654297	485.4386596679689	278.6249084472657	467.1589355468751	519.4107055664064	
31	0.125	475.525604248047	1110.250122070313	17.15133857727051	368.4980468750001	1104.787475585938	2.000221014022828	553.8431396484376	1053.520874023438	-190.6286773681641	319.3653869628907	1034.47265625	-197.135238647461	614.5007934570314	788.734313964844	-167.3941955566407	610.9541015625001	793.3925781250002	-227.9013366699219	597.4088745117189	718.3554077148439	-210.6582489013672	583.0239868164064	723.3775634765626	-267.2367553710938	514.2097167968751	296.2052917480469	-151.3125610351563	514.4238891601564	271.6328125000001	-208.0604553222657	504.568328857422	238.3994293212891	-157.9106140136719	492.7078857421876	217.2454833984376	-212.8646697998047	427.0830688476564	97.06530761718753	-77.46370697021486	396.3826599121095	60.16606903076173	-86.12964630126955	459.7208251953126	61.00826644897462	-75.98402404785158	389.2307128906251	73.00308227539064	-155.7471771240235	488.7405090332032	70.73365020751955	-133.6976776123047	407.9878234863282	90.6311721801758	-211.7333679199219	415.1425781250001	75.02162933349611	-242.5767059326172	464.4097595214845	96.54254913330081	-247.5278015136719	504.1098937988282	44.95668029785157	-174.3217468261719	419.3419494628907	47.91390228271485	-297.4560241699219	474.8785095214845	60.47851562500001	-305.7786865234376	528.9234619140626	39.96458435058594	-250.814193725586	470.3876953125001	44.35056686401368	-365.1883239746094	231.1187133789063	761.3442382812501	-78.46514892578126	233.1573791503907	745.6570434570314	-137.396469116211	229.9655456542969	677.0501708984376	-93.89556121826173	244.8803100585938	661.8656616210939	-150.3504791259766	282.3360595703126	584.9069824218751	207.0133056640626	269.6925964355469	536.7747802734376	226.8056793212891	284.5244750976563	569.6798706054689	261.1988220214844	286.9169616699219	516.9958496093751	278.2218017578126	360.5351257324219	623.0609741210939	382.5636596679688	339.0690917968751	636.3024902343751	423.0011596679689	395.6537170410157	621.7864990234376	415.0246582031251	369.2149353027344	409.3953247070314	463.466278076172	278.2098693847657	467.725067138672	496.8318481445314	
